<?xml version="1.0" encoding="UTF-8"?>
<svg version="1.1" viewBox="0 0 900 900" width="1280" height="1280" xmlns="http://www.w3.org/2000/svg">
<path transform="translate(0)" d="m0 0h900v900h-900z" fill="#FEFEFE"/>
<path transform="translate(0)" d="m0 0h900v900h-900zm666 83-461 1-12 4-10 6-8 9-4 8-2 6v663l4 13 8 11 11 8 13 4h486l14-3 10-6 8-8 7-14 2-12-1-652-3-11-5-9-7-8-10-6-10-3-10-1z" fill="#FEFEFE"/>
<path transform="translate(666,83)" d="m0 0h20l14 2 12 5 8 7 6 9 4 10 1 5 1 652-2 12-7 14-9 9-12 6-11 2h-486l-13-4-11-8-8-11-4-13v-663l4-11 7-9 7-6 11-5 7-2zm-458 86-5 3-6 6v595l2 8 6 5 3 1h354l1-75 1-34 7-14 1-3h2l5-5 10-6 7-2 107-1v-467l-3-7-4-3-3-1z" fill="#6647FF"/>
<path transform="translate(207,113)" d="m0 0h488l5 3 3 8v18l-13-1h-481l-12 1-1-5 1-14 4-7z" fill="#FEFEFE"/>
<path transform="translate(602,675)" d="m0 0h101v102l-3 5-4 4-3 1h-102l-1-1v-96l3-8 5-5z" fill="#FEFEFE"/>
<path transform="translate(418,236)" d="m0 0 5 3 8 9 8 7-6 7-3 4h-2l-2 4-81 81-10 7-8 3-11-1-10-6-10-9-36-36-3-2 1-4h2l1-3 5-5 6-5 3-4 5 1 42 42 4-2 12-11 75-75z" fill="#674AFF"/>
<path transform="translate(418,462)" d="m0 0 4 1 9 10 8 7-2 4-15 15h-2l-2 4-70 70-12 9-7 3h-11l-8-3-9-7-44-44 2-4 10-10 7-6 4 1 7 8 10 9 23 23 2 3 4-2 90-90z" fill="#6545FF"/>
<path transform="translate(479,309)" d="m0 0h167l1 1v27l-37 1h-128l-4-1v-27z" fill="#684CFF"/>
<path transform="translate(479,534)" d="m0 0h167l1 1v27l-77 1h-88l-4-2v-26z" fill="#6544FF"/>
<path transform="translate(479,253)" d="m0 0h168v28h-169v-27z" fill="#684CFF"/>
<path transform="translate(479,478)" d="m0 0h167l1 1v27h-168l-1-1v-26z" fill="#6543FF"/>
<path transform="translate(632,703)" d="m0 0h32l6 4 3 4 2 6v30l-4 8-8 4-15 1-16-1-8-4-4-6-1-5v-26l3-9 6-5z" fill="#90BCFF"/>
</svg>
